<?xml version="1.0" encoding="UTF-8" standalone="no"?>
<!-- Created with Inkscape (http://www.inkscape.org/) -->

<svg
   xmlns:dc="http://purl.org/dc/elements/1.1/"
   xmlns:cc="http://creativecommons.org/ns#"
   xmlns:rdf="http://www.w3.org/1999/02/22-rdf-syntax-ns#"
   xmlns:svg="http://www.w3.org/2000/svg"
   xmlns="http://www.w3.org/2000/svg"
   xmlns:sodipodi="http://sodipodi.sourceforge.net/DTD/sodipodi-0.dtd"
   xmlns:inkscape="http://www.inkscape.org/namespaces/inkscape"
   width="2387.6592"
   height="2371.8679"
   id="svg29869"
   sodipodi:version="0.32"
   inkscape:version="0.91 r13725"
   version="1.0"
   sodipodi:docname="Provincias_de_Catalunydda.svg"
 >
  <defs
     id="defs29871">
    <inkscape:perspective
       sodipodi:type="inkscape:persp3d"
       inkscape:vp_x="0 : 526.18109 : 1"
       inkscape:vp_y="0 : 1000 : 0"
       inkscape:vp_z="744.09448 : 526.18109 : 1"
       inkscape:persp3d-origin="372.04724 : 350.78739 : 1"
       id="perspective29877" />
    <clipPath
       id="SVG_CP_1">
      <path
         d="m 0,0 0,413.26299 601.51181,0 L 601.51181,0 0,0 Z"
         id="path6"
         inkscape:connector-curvature="0" />
    </clipPath>
    <inkscape:perspective
       id="perspective3679"
       inkscape:persp3d-origin="212.5 : 133.33333 : 1"
       inkscape:vp_z="425 : 200 : 1"
       inkscape:vp_y="0 : 1000 : 0"
       inkscape:vp_x="0 : 200 : 1"
       sodipodi:type="inkscape:persp3d" />
  </defs>
  <sodipodi:namedview
     id="base"
     pagecolor="#ffffff"
     bordercolor="#666666"
     borderopacity="1.0"
     inkscape:pageopacity="0.0"
     inkscape:pageshadow="2"
     inkscape:zoom="0.60000002"
     inkscape:cx="2510.4763"
     inkscape:cy="2070.5019"
     inkscape:document-units="px"
     inkscape:current-layer="layer1"
     showgrid="false"
     inkscape:showpageshadow="false"
     borderlayer="true"
     inkscape:window-width="1920"
     inkscape:window-height="1138"
     inkscape:window-x="-8"
     inkscape:window-y="-8"
     fit-margin-bottom="50"
     fit-margin-top="50"
     fit-margin-right="50"
     fit-margin-left="50"
     inkscape:window-maximized="1" />
  <metadata
     id="metadata29874">
    <rdf:RDF>
      <cc:Work
         rdf:about="">
        <dc:format>image/svg+xml</dc:format>
        <dc:type
           rdf:resource="http://purl.org/dc/dcmitype/StillImage" />
        <dc:title />
      </cc:Work>
    </rdf:RDF>
  </metadata>
  <g
     inkscape:label="Capa 1"
     inkscape:groupmode="layer"
     id="layer1"
     transform="translate(375.16408,1970.3131)">
    <g
       id="g4238"
       style="opacity:1;fill:none;stroke:#000000;stroke-width:1;stroke-miterlimit:4;stroke-dasharray:none;stroke-opacity:0.46733668"
       transform="translate(-5824.4872,-5e-4)" />
    <g
       id="g5869"
       style="stroke:#000000;stroke-width:2;stroke-miterlimit:4;stroke-dasharray:none;stroke-opacity:1">
      <path
         id="path4283"
         d="m 593.9963,-669.9683 -7.25,1.6563 -2.75,4.25 -11.5,0.2187 1.5625,8.75 6,2.75 0.1562,5.75 -8.7812,1.5 -5.7812,-1.25 -3,-4.3437 -8.75,-4.0313 -39.1876,-2.3125 -5.8124,-2.75 -8.5,6.0625 -16.0938,-6.9687 -8.7188,4.375 -2.9687,-4.1563 -4.1875,1.4375 -4.3438,2.9375 -8.7187,-2.7187 -8.7813,1.6874 -4,8.6876 -2.5624,11.6874 -12.9376,4.4376 -15.8437,3.1562 -1.4687,2.875 6,1.4375 0.0312,1.3125 -1.5,1.5625 -5.75,0.125 1.375,1.5 2.875,-0.0625 -1.0312,11.4688 -1.5,1.375 -2.875,0.0312 0.0937,4.4062 1.7187,7.2188 5.875,4.0938 3.2188,12.9062 -5.75,0.125 -12.9062,5.9688 -18.6876,4.7187 0.0938,2.875 -7.2188,3 -8.5624,3 -1.7188,-7.0313 -4.25,-1.4374 -4.4375,-1.25 -7.375,-2.9063 -8.8125,-6.9063 -5.7812,-1.4374 -7.4376,-5.5626 -10.375,-7.0624 -1.25,2.875 8.9376,11.4687 -2.8126,2.9375 -5.6562,4.2812 4.5625,5.8438 8.8125,6.9062 8.7188,2.6876 5.875,4.2812 -10.0313,5.9062 -2.6563,8.8438 -2.8437,1.375 -5.7187,1.6562 -2.5938,9.9688 -2.6562,8.8125 -5.75,0.125 0.0937,4.1875 -2.6875,7.3125 -2.875,0.0625 -5.8125,5.8125 -10,-1.1563 1.4687,4.1876 -7.1562,5.8437 0.0938,3.0625 -1.3126,1.375 -7.375,-2.75 -4.2187,7.3438 -2.6875,7.125 -1.2188,4.4062 -7.1562,5.8438 0.125,4.4062 0.0625,2.8438 2.875,-0.0313 -4.0937,4.4687 -5.875,2.9688 -4.2188,0.0625 -10.125,1.5313 -14.4062,0.2812 -5.875,1.625 -4.1876,1.4062 -10.0624,4.5938 -15.8438,3.1562 -11.9375,-16.9687 -1.75,-7.2187 -10.0625,3.0312 -1.25,4.4375 -2.75,4.25 -3.875,21.625 -5.7188,1.625 -10.1874,-1.3125 -2.875,0.0312 -7.375,-2.7187 -10.2188,-2.6563 -2.9062,-1.3124 -5.7188,1.4687 -2.7812,4.4375 -2.7188,5.7812 0.0938,4.375 -15.875,1.625 -8.5626,3.0313 -5.9687,-1.2187 -4.1875,1.4062 -5.7812,-1.2188 -4.375,1.4063 -4.3438,2.9375 -2.875,0.0625 -7.125,-1.2187 -8.6562,7.25 -8.5626,1.6562 -8.5624,3.0312 -5.625,5.8438 -7.2813,0.125 -7.3125,-1.1875 -8.7188,-2.7187 -8.9062,-11.4688 -3.125,-8.5312 -0.0625,-2.875 -4.4063,0.0937 -14.5937,-8.3125 -7.125,7.1875 -1.3437,7.2813 -8.3438,11.5937 -4.125,10.1875 -15.9688,-1.0312 -3.0624,-7.1876 -4.4063,-7.1874 -2.9687,-4.125 -6.2188,-10 -7.3125,-8.4688 -6.125,-7.125 -2.8125,2.9062 -9.8438,5.9063 -7.0624,8.7187 0.5624,21.75 -1.0937,17.1876 -7,3 -27.7187,-3.6876 -1.3438,0.0313 -0.4688,0.0313 -8.5624,0.3437 0.0624,0.3437 1.0313,6 4,8.2813 -4,5.5937 -1.5937,7.1876 1.75,7.3437 -0.625,3.625 -0.625,3.5625 -0.0313,1 -0.1563,6.375 0,0.4375 -6.8437,2.375 -3.3437,6.4063 -5.5938,4.4687 -13.7188,-0.1563 -7.6874,5.5626 -3.9688,5.5937 -3.0312,6.7187 -3.5313,13.7188 1.5937,7.9688 -2.375,6.875 -0.8124,7.0312 -1.75,7.1562 -5.25,4.8126 -12.3126,8.125 -8.2812,1.5937 -6.5625,-2.4063 -4.4687,6.875 0.1874,7.0313 -4.8124,5.25 -6.8438,0.6563 -6.2188,-4.9688 -6.875,1.125 -5.5937,5.5938 -1.2813,6.6874 0.5,8.3126 -2.25,7.0312 -1.2812,7.3438 2.7188,6.6874 12.2812,9.0938 -5.0938,9.0938 0.1563,7.5 5.9063,3.5312 2.25,6.5312 -4.3126,7.0313 4.125,6.0625 6.25,3.5 6.5313,-3.1875 6.875,1.125 2.2187,7.6563 7.5,1.5937 6.875,-0.7813 3.9688,6.2188 -6.2188,4.9375 -6.2187,2.4063 0,7 6.5313,4 0.1874,6.875 5.4063,5.4062 2.7187,6.4062 1.2813,7.1563 6.6875,3.6875 -6.2188,4.625 -2.2187,7.1875 -4.8125,5.9063 -3.3438,6.0624 2.25,7 -11.1874,10.0626 -2.2188,6.7187 0.4688,7.6563 -3.8438,6.8437 -5.25,13.4063 -1.4375,6.875 9.5625,11 0.1875,6.875 -2.4063,13.5624 3.1876,6.0626 9.0937,12.625 2.3437,4.4687 0.8438,1.5937 -2.2188,6.6876 -4.7812,6.0624 -7.5,12.3126 -5.4375,5.25 -3.375,1.9374 -3,1.75 -2.875,14.6563 -5.4375,5.5937 -8.2812,3.6876 -6.0938,3.8124 -13.7188,5.75 -6.6874,-0.1562 -0.8126,6.875 -6.0624,3.3438 -4.7813,-5.2813 -2.25,7.5 5.4375,4 2.7188,8.7813 4.625,2.5624 6.875,0.3126 7.5,3.6562 6.2187,-3.9688 5.4063,-4.8124 6.25,-2.875 1.25,8.7812 0.6562,13.75 4,6.2188 2.5312,6.375 6.875,-3.6876 6.8438,-2.5312 13.4062,6.6875 11.0313,10.375 4.7813,5.5937 -4.7813,5.5938 -5.75,4.4688 -4,5.5624 -3.6563,6.4063 -1.4374,6.5313 6.875,12.7812 4.625,5.5625 6.6874,3.5313 6.875,0.1562 6.2188,2.7188 5.4375,5.0937 6.6875,2.4063 7.3438,0.9374 12.9374,4.4688 14.1876,2.7188 14.375,0 5.4062,4.7812 5.2812,7.3438 5.4376,5.5937 6.2187,3.6875 6.2187,2.6875 3.1876,6.0625 -3.5,6.7188 2.5312,6.875 1.2812,7.1562 5.4376,4.8125 6.875,4.4687 6.6874,-0.5 6.375,4.1563 7.8438,2.0625 7,3.0312 5.75,3.375 9.5938,4.1563 0,-0.5 2.5312,-11.6563 16.2812,-30.3124 8.625,-7.1876 15,-20.75 13.4063,-11.6562 8.3125,-10.5312 4.625,-1.75 23.4375,-2.7188 12.3125,-0.9375 8.9375,-0.6563 9.0937,-8.125 16.4376,-0.1562 4.625,-2.25 12.4374,1.75 5.75,2.4062 0.6563,3.3438 -11.6563,23.3125 -11.6562,11.8125 -4.4688,4.3125 -4.3124,1.2813 -9.0938,-1.2813 -4.7812,-3.0313 -11.1876,0.625 -3.0312,2.4063 -1.75,4.4687 -7.5,-1.75 -13.875,2.2188 -6.25,-1.4375 -3.9688,6.0625 -4.4687,-0.1562 -0.9687,3.0312 1.125,5.2812 11.5,5.25 10.5312,4 1.9062,-0.1562 4.4688,-0.3125 17.5625,3.0313 8.7813,-5.4376 10.8437,-8.9374 12.4375,-12.4376 15.9688,-25.5624 11.3437,-22.8126 0.1563,-0.1562 0.625,1.125 0.1562,-0.3125 1.5938,-1.125 0.1562,-0.3125 0,-0.5 0.1562,-0.1562 0.5,0 1.5938,-2.375 -0.1562,-0.5 4.9374,-3.6563 18.6876,-9.0937 0.4687,-5.2813 1.9063,-7.9687 3.0312,7.0312 8,-5.2812 21.2188,-2.0626 7.5,-3.6874 4,-3.6563 -0.5,-5.125 4.9687,-2.7187 4.9375,-7.3438 6.8438,-6.2188 8.625,-7.9687 3.5937,-7.9063 0.0937,-0.2187 -3.8437,-10.875 -4.4687,-5.25 -3.0313,0.1563 0,7.9687 -1.8437,4.0625 -0.0626,0.0938 -6.5624,5.75 -0.1563,0 0,-0.6563 -2.0625,-0.7813 -0.3125,0.4688 0,0.3125 -0.5,0.1563 -0.3125,0.1874 -0.1562,0.3126 -0.7813,0.3124 -0.6563,0.1563 -0.3124,0 -0.4688,0 -1.2812,0.3125 -0.5,0.3438 -0.1563,0 -0.4687,0 -1.2813,0.3124 -0.4687,0 -0.1563,0 -0.6563,0.1563 -0.4687,0 -0.1563,0 -0.4687,0.3125 -0.9687,0.3125 -0.3126,0.1563 -0.5,0 -0.1562,0 -0.3125,0.3437 -0.4687,0.3125 -0.9688,0.1562 -0.1562,0.3126 -0.3126,0 -0.1562,0 -0.3438,0.3124 -0.3124,0.1563 -0.7813,0.3437 -5.9063,1.75 -4.9687,3.6563 -0.1563,0 -0.1562,0.1563 -1.2812,0.3437 -0.1563,0.3125 -0.3125,0 -0.1562,0 -0.4688,0.1562 -0.3438,0 -0.1562,0 -0.4688,0.3126 -1.125,0.3124 -0.1562,0.1563 -0.1562,0.3437 -0.3126,0 -0.3124,0 -0.5,0.1563 -0.1563,0.3125 -0.4687,0.3125 -0.5,0.1563 -0.3126,0.3437 -0.4687,0.3125 -0.1563,0 0,0.4688 -0.5,0.1562 -0.3124,0.1562 0,0.5 -0.4688,0.1563 -0.4688,0.1563 0,0.4687 -0.1562,0.8125 -0.8125,0 0,0.3125 -8.125,2.4063 -11.8125,0.4687 -4,-1.4375 -9.75,-3.3438 -5.9062,-4.625 -0.1563,-0.1874 -0.1563,-0.3126 -0.4687,0 -1.2813,-0.3124 -0.4687,-0.1563 -0.3125,0 -0.1875,0 -1.25,-0.1563 -0.1875,0 -1.0938,0 -0.6562,0 -0.3125,0 -0.4687,0 -0.6563,0 -0.4687,0 -2.0626,-0.3124 -12.625,-4.4688 -13.5624,-1.625 -2.0626,0 0,-0.3125 -0.5,0 -0.1562,-0.3125 -0.3125,-0.1562 0,-0.625 -0.4687,0 0,-0.5 -0.5,0 -0.1563,-0.7813 -0.1563,-0.1563 -0.4687,-0.1874 -0.3125,-0.1563 0,-0.625 -0.6562,-0.1563 -0.625,-0.1562 0,-0.3438 0,-0.1562 -0.5,0 -0.4688,-0.3125 -0.1562,-0.1563 -0.8126,-0.1562 0,-0.4688 -0.4687,0.1563 -0.7813,0.1563 0,-0.4688 -1.125,-0.1875 -0.4687,0 -0.3437,0 -1.4376,-0.1563 -0.7812,0 -0.4688,0 -0.5,0 -0.4062,0.2813 -0.0625,0.0625 -0.3125,0 -1.4375,0 -0.6563,0 -0.7812,0 -1.4375,0.3125 -0.3125,0 -0.5,0 -0.4688,0.3125 -1.2812,-1.125 -5.9062,0.5 -23.9376,7.1562 -10.6874,4.4688 -19.7813,-2.2188 -0.1563,-4.1562 2.4063,0.75 1.25,0.375 6.875,2.2188 5.5625,0.25 1.75,0.0937 36.5625,-12.3125 6.9375,-1.2188 5.6562,-1 4.1563,0.4688 10.375,6.875 2.5313,0.5938 21.4062,4.9687 12.625,1.4375 18.8125,11.1875 1.7813,0.0625 5.375,0.1875 1.7812,0.0625 0.2188,-0.0938 22.4687,-10.9374 6.8437,-3.3438 16.125,-6.0625 0.375,-0.625 0.75,-1.2813 -0.9687,-2.875 -14.8437,-4.625 -12.2813,-13.4062 -11.8125,-15.4688 -18.3438,13.7188 -13.5624,2.5625 -11.6563,-0.6563 -13.9063,5.5938 -1.75,-0.9688 14.0626,-9.0937 9.25,1.125 10.6874,-3.1875 6.875,-0.3125 5.7188,-3.0313 8.1562,-7.8437 2.0626,-4.125 -5.75,-12.3125 -4.2813,-3.5 -10.375,-3.5 -11.3437,-1.4375 -3.3438,1.25 5.4062,4 1.625,0.5 14.5,4.625 2.5626,1.9063 0.625,2.875 -2.875,3.3437 -15.1563,3.0313 -5.9063,-0.625 -9.875,-4.1563 -4.9687,-3.6875 -6.6875,-7.8125 -8.4688,-9.875 -2.2187,-6.25 1.2813,-3.8125 8.75,-9.75 5.5937,-1.9062 8.9375,-10.6876 1.5938,-6.7187 8.3124,-11.3125 15.7813,-9.75 10.0625,-9.5625 3.1875,-5.125 7.5,-12.9063 11.1875,-10.375 11,-18.8437 6.7188,-6.6875 10.5937,-16.8438 0.1563,-0.2187 4.0937,-6.5625 15.9375,-12.7812 6.4062,-8.4688 1.75,-2.375 7.3438,-7.0312 4.625,-8.125 3.8125,-1.125 4,2.4062 2.4063,-0.6562 7.5,-11.1563 2.375,-6.875 6.5624,-8.4687 20.75,-21.2188 8.2813,-5.5938 11.9687,-4.625 2.4063,-1.75 5.0937,-3.6562 9.75,-3.5312 23.625,-4.9376 6.375,2.2188 4.4688,-0.4688 18.5,-8.2812 7.8438,-1.2812 8.1562,0.4374 3.8125,0.1876 6.2187,1.75 5.5938,6.2187 3.3438,0.6563 3.5,5.4374 5.2812,3.3438 3.3438,0.7812 6.375,-8.7812 -1.125,-9.4062 2.25,-7.0313 5.4374,-6.5313 7.5,-6.5312 14.5,-12.4688 15.6563,-4.3124 22.1875,-3.5 5.5938,-7.0313 5.4062,-0.9375 5.5938,-3.5312 15.1562,-3.0313 4.4688,1.5937 7.0312,0.1563 8.125,2.7187 3.6875,-1.9062 4.7813,-0.1562 6.875,-3.6876 9.25,-5.25 9.875,2.5626 0.9687,-0.6563 5.4375,-2.5625 11.9688,-9.875 3.1874,-1.75 34.9376,-18.6875 8.7812,-0.1563 14.6875,-4.625 4.9375,-2.3124 11.1875,-5.1876 21.2187,-4.9374 32.5626,-6.0626 12.9374,1.25 4.4688,-0.4687 2.8438,-0.3125 11.8124,-5.2812 14.75,-2.0626 -1.2187,-3.7812 -3.0625,-7.2188 -0.2188,-8.5624 4.4063,-0.0938 3,4.1562 1.3125,-1.375 -4.4375,-8.6874 -2.9687,-2.8126 1.125,-8.625 -3.0313,-5.6562 -5.6563,2.9688 -1.4687,2.875 -1.25,4.4062 -5.7187,1.4688 -4.5,-4.125 -4.5313,-4.3126 -5.875,-4.2812 -5.7187,1.625 -7.3126,-1.375 -6.0937,-12.875 -0.1563,-5.7188 -4.3437,-5.6562 17.3125,2.5625 1.5938,1.4687 1.375,1.3126 0.0312,1.5312 2.875,-0.0312 5.8438,2.75 5.8124,-4.5 2.875,-0.0626 1.1563,-7.0937 -0.0313,-1.5 4.2813,-5.8125 -4.5625,-5.6562 4.25,-5.8126 1.1562,-7.25 -1.3437,0 -0.0937,-4.375 2.875,-0.0624 2.7812,-2.9063 -2.9062,-1.2813 -2.8126,2.9063 -1.5624,-1.5 -6.9688,4.5313 -2.7188,7.125 -7.3437,-2.75 -8.7813,-5.5626 -1.5312,0.0313 -0.125,-4.1875 4.1562,-10.1875 -0.0312,-1.5313 -11.8438,-5.5 -2.875,0.0313 -0.1562,-5.7187 -4.4062,-7.1563 -1.75,-8.5625 -4.5313,-4.3125 8.5625,-10.2813 5.7188,-1.4374 -1.7188,-7.2188 -2.9062,-1.2812 -1.3126,1.3437 -0.125,-4.1875 -5.8124,-2.9375 -4.375,1.5937 -4.4376,-1.4374 -3.0624,-7 -7.5313,-8.6563 -12.9063,-2.625 -7.4374,-5.5937 -25.75,13.4687 1.4062,-4.4063 2.75,-5.7812 2.6875,-7.125 4.125,-3.125 -3.1563,-11.4062 -2.9687,-2.7813 1.4687,-2.9063 1.2813,-2.875 -5.8437,-2.7812 1.3437,-7.25 4.2813,1.4375 7.1874,-3 -0.0312,-1.5313 -14.375,0.2813 -0.0625,-2.875 -4.5625,-5.625 12.625,-16.0937 -0.2188,-8.7813 -1.6874,-5.6875 -5.8438,-2.75 -1.5312,-7.2188 -5.9376,0.0938 -4.2812,-2.7812 -5.75,0.0937 -0.0312,-1.3125 -9.0313,-7.0938 -13.0937,-2.625 -1.4376,-2.8437 -1.5,1.375 -4.2812,-2.7813 -5.8438,-2.75 -1.625,-4.1874 -2.9062,-1.4688 -0.1562,-5.7188 1.1874,-5.75 4.1876,-8.6562 16,2.5625 7.0937,-7.4063 8.7187,2.7188 -0.3124,-11.4375 -1.4376,-4.375 -8.7812,1.6875 -3,-4.3438 17.125,-13.2812 -23.5625,-12.5625 z m 163.0625,259.0937 -5.75,0.0938 -3,2.9062 4.4688,1.4688 4.3437,-2.9688 -0.0625,-1.5 z M 56.1526,166.313 l 0.1874,0 0.3126,0 0.625,0 0.6562,0 0.4688,0 0.1562,0 0.3125,0.1562 0.125,0.0625 0.8437,0.2813 0.9688,0.1562 0.9375,0.3125 0.3125,0.1563 0.6562,0.1562 0.3126,0.3125 0.4687,0.1563 0.5,0.1874 0.1563,0.3126 0.1562,0.1562 0.3125,0.3125 0.3125,0.1563 0.1562,0.3124 0.3438,0.1876 0.1562,0.4687 0.4688,0 0.1562,0.3125 0.1563,0.1562 0.1563,0.4688 -10.375,0.3438 -4.625,-3.8438 0.5,-0.1562 1.25,-0.3126 0.1874,-0.1562 0.3126,0 0.625,0 0.5,-0.3125 0.3124,0 0.4688,0 0.4688,-0.3437 z m 97.0624,15.3437 -3.5312,2.5313 -0.3125,0 0.1563,-0.1563 0.1562,-0.1563 0.1562,-0.1562 0.1563,-0.1562 0,-0.1563 0.1563,0 0.1874,-0.1563 0.1563,-0.1562 0.4687,-0.3438 0.4688,-0.1562 0,-0.1562 0.1562,-0.1563 0.8126,-0.3125 0.1562,-0.1562 0.6562,-0.1563 z"
         style="fill:blue;fill-opacity:1;fill-rule:nonzero;stroke:#000000;stroke-width:2;stroke-miterlimit:4;stroke-dasharray:none;stroke-opacity:1"
         inkscape:connector-curvature="0" />
      <path
         id="path4297"
         d="m 68.1213,-1918.9683 -10.1875,3.0625 -7.8438,14.5 -0.7812,1.2813 -7.3438,5.2812 0.7813,25.0313 -1.4375,8.9375 -13.4062,17.0937 -0.3126,4.9375 11.1876,7.3438 -2.7188,10.0625 -2.0625,2.875 -0.6563,5.9062 6.0626,11.6563 0.9687,6.2187 0.7813,5.9063 5.125,11 -0.3126,18.6875 4.9376,10.6875 -0.4688,7.3437 -1.7812,0 1.4374,6.375 2.875,5.75 10.2188,11.8125 2.25,7.1875 -0.9688,7.3438 3.3438,6.2187 0,7.6563 4,6.8437 5.75,4.4688 7,2.0937 5.5938,4.9375 7.6562,0.6563 6.875,-2.5625 9.4062,3.0312 3.3438,4.4063 0.0938,0.125 0.0937,0.094 0,4.625 -0.8125,4.9375 -3.6562,3.375 -1.7813,10.5313 0.5,5.5937 -0.9687,11.1563 -3.3438,9.25 -3.5,3.5312 -4.6562,9.0938 -1.4376,4.9375 0,4.9375 -4.625,1.75 -7,6.875 -1.5937,5.75 2.875,4.1562 5.25,5.4063 0.8125,8 -12.625,8.5937 -7.0312,-3.9687 -6.8438,2.7187 -3.5312,6.8438 0.1874,7.0312 3.1876,6.0625 7.8124,7.0313 0,4.625 -4.7812,4.4687 2.0625,4.7813 -0.3125,6.375 4.3125,4 0.7813,4.9375 4.625,1.4375 3.375,4.7812 5.0937,2.875 1.75,4.4688 2.875,4.4687 2.0937,4.6563 1.0938,5.7187 -0.625,5.4375 2.0625,9.75 3.0313,5.5625 -2.2188,4.8125 2.375,4.9375 -2.6875,4.625 2.875,6.5313 -0.8125,5.4375 0.5938,1.375 1.4687,3.25 -0.625,2.9687 -1,4.8438 -2.8437,13.75 1.4374,5.0937 0,4.625 2.875,4.1563 0,4.9375 -4.4687,2.7187 -2.875,4.3125 -0.4687,4.9375 4.1562,2.7188 -0.8125,9.5625 -3.1875,3.5312 -1.2812,4.7813 0,4.9375 3.5312,4.1562 -1.4375,9.4063 -2.0937,5.2812 -3.3438,4.3125 0.6562,4.9375 -1.4374,4.7813 -3.6876,4.9687 -2.0624,4.625 -4,3.0313 -1.4376,4.625 -0.7812,5.5937 0,5.4063 -2.7188,4.1562 0.4688,5.75 -1.2812,9.4063 -5.75,9.9062 0.5,7.5 -4.8126,9.5625 0,4.8125 4.8126,0 7,2.5313 -0.1563,6.7187 -6.5313,3.8125 -4.9374,6.5625 1.0937,7.3438 0,5.4062 3.5313,3.8438 -14.9688,47.4687 -10.5938,33.5938 -5.25,5.125 -9.75,13.4062 3.375,3.3438 -15.6562,28.7187 -6.5312,6.2188 -4.3126,6.0625 -1.2812,5.4375 -0.1562,0.4687 -1.75,4.8125 -3.3438,4.4687 -4.4688,2.2188 -6.7187,-1.75 -7.6563,4.7812 -9.25,13.0938 -5.4374,5.75 1.2812,7.1875 6.375,2.6875 4.625,5.75 10.5312,4.7812 0.6563,2.7188 1.125,4.625 0.1563,7.0312 -1.2813,14.0626 2.375,8.75 2.5625,5.5937 -4.625,6.7187 -9.125,5.2188 -1.7188,1 1.0313,3.5312 0.4063,1.4063 -0.3438,2.4063 -0.6875,0.1874 -8.25,2.1876 -8.2813,-0.7813 -5.5937,5.75 -1.2813,6.6875 -0.1562,7.5 -3.3438,7.0312 -6.7187,3.3438 -7,-0.3125 -7.6563,1.5937 -6.875,2.5626 -18.6874,24.25 -2.8438,6.2187 -0.6562,8.3125 -1.5938,6.6875 -4.1562,5.4375 -15.7813,3.5 -14.2187,1.4375 -9.0938,2.7187 -6.2188,3.1876 -5.4374,4.7812 -2.2188,7.0312 3.6562,6.2188 -7.6562,-0.7812 -6.2188,4.7812 -4.3124,7.3438 -1.125,7.3437 -2.2188,6.6875 -6.875,3.1875 -5.5938,5.75 -6.0624,4 -4.4688,7.0313 -5.4062,4.7812 -4,6.2188 2.5624,6.7187 1.2813,7 3.5,8.1563 2.2187,6.6874 12.3126,11.8126 0.4687,7.3437 -4.625,5.5937 -0.8125,7.0313 5.5938,13.7187 7.1874,3.0313 7.1876,-1.125 15,3.8437 8.2812,-3.0312 13.75,-0.3438 6.2188,5.125 0.7812,7.8126 -5.0938,7.5 0.1563,6.875 1.9063,7.1562 10.875,9.9062 0.625,7.0313 -5.4376,4.9375 -13.0624,16.2812 -6.25,5.4376 -3.6563,6.5312 -3.1875,7.9688 -2.0938,7.0312 -13.7187,5.9062 -7.0313,0.8126 -6.8437,-0.8126 -7.3437,2.0938 -4.9376,9.7188 0.4688,4.7812 5.25,8.3125 0.9688,5.4063 0,4.8124 -0.7813,5.75 -3.5313,9.0938 1.75,5.0938 -0.625,5.4374 -4.3124,3.3438 -1.125,4.9375 0.6562,4.7813 -2.0938,4.8124 -1.5937,1.4376 -7.3437,5.5624 -3.3438,4 -4,6.375 4.1562,4.9688 6.875,4.7812 19.7813,11.3126 3.5,7.5312 5.4375,5.25 -0.1562,7.0312 -3.8438,5.9063 -3.6562,1.4375 -0.4688,-0.6562 -7.3438,7.0312 -2.7187,4.1562 1.9063,4.625 4.625,2.0626 3.6874,3.3437 4.625,1.2813 2.375,4.8124 -3.3437,9.7188 -4.4687,3.0312 2.875,1.2813 4.9374,5.5937 0.1876,1.1563 8.5624,-0.3437 0.4688,-0.0313 1.3438,-0.0313 27.7187,3.6876 7,-3 1.0937,-17.1876 -0.5624,-21.75 7.0624,-8.7187 9.8438,-5.9063 2.8125,-2.9062 6.125,7.125 7.3125,8.4688 6.2188,10 2.9687,4.125 4.4063,7.1874 3.0624,7.1876 15.9688,1.0312 4.125,-10.1875 8.3438,-11.5937 1.3437,-7.2813 7.125,-7.1875 14.5937,8.3125 4.4063,-0.0937 0.0625,2.875 3.125,8.5312 8.9062,11.4688 8.7188,2.7187 7.3125,1.1875 7.2813,-0.125 5.625,-5.8438 8.5624,-3.0312 8.5626,-1.6562 8.6562,-7.25 7.125,1.2187 2.875,-0.0625 4.3438,-2.9375 4.375,-1.4063 5.7812,1.2188 4.1875,-1.4062 5.9687,1.2187 8.5626,-3.0313 15.875,-1.625 -0.0938,-4.375 2.7188,-5.7812 2.7812,-4.4375 5.7188,-1.4687 2.9062,1.3124 10.2188,2.6563 7.375,2.7187 2.875,-0.0312 10.1874,1.3125 5.7188,-1.625 3.875,-21.625 2.75,-4.25 1.25,-4.4375 10.0625,-3.0312 1.75,7.2187 11.9375,16.9687 15.8438,-3.1562 10.0624,-4.5938 4.1876,-1.4062 5.875,-1.625 14.4062,-0.2812 10.125,-1.5313 4.2188,-0.0625 5.875,-2.9688 4.0937,-4.4687 -2.875,0.0313 -0.0625,-2.8438 -0.125,-4.4062 7.1562,-5.8438 1.2188,-4.4062 2.6875,-7.125 4.2187,-7.3438 7.375,2.75 1.3126,-1.375 -0.0938,-3.0625 7.1562,-5.8437 -1.4687,-4.1876 10,1.1563 5.8125,-5.8125 2.875,-0.0625 2.6875,-7.3125 -0.0937,-4.1875 5.75,-0.125 2.6562,-8.8125 2.5938,-9.9688 5.7187,-1.6562 2.8437,-1.375 2.6563,-8.8438 10.0313,-5.9062 -5.875,-4.2812 -8.7188,-2.6876 -8.8125,-6.9062 -4.5625,-5.8438 5.6562,-4.2812 2.8126,-2.9375 -8.9376,-11.4687 1.25,-2.875 10.375,7.0624 7.4376,5.5626 5.7812,1.4374 8.8125,6.9063 7.375,2.9063 4.4375,1.25 4.25,1.4374 1.7188,7.0313 8.5624,-3 7.2188,-3 -0.0938,-2.875 18.6876,-4.7187 12.9062,-5.9688 5.75,-0.125 -3.2188,-12.9062 -5.875,-4.0938 -1.7187,-7.2188 -0.0937,-4.4062 2.875,-0.0312 1.5,-1.375 1.0312,-11.4688 -2.875,0.0625 -1.375,-1.5 5.75,-0.125 1.5,-1.5625 -0.0312,-1.3125 -6,-1.4375 1.4687,-2.875 15.8437,-3.1562 12.9376,-4.4376 2.5624,-11.6874 4,-8.6876 8.7813,-1.6874 8.7187,2.7187 4.3438,-2.9375 4.1875,-1.4375 2.9687,4.1563 8.7188,-4.375 16.0938,6.9687 8.5,-6.0625 5.8124,2.75 39.1876,2.3125 8.75,4.0313 3,4.3437 5.7812,1.25 8.7812,-1.5 -0.1562,-5.75 -6,-2.75 -1.5625,-8.75 -0.125,-4.1875 9.9687,-7.4375 1.0626,-11.4687 -10.1563,0.1874 -5.8437,-2.75 -7.4063,-4.25 -1.4375,-4.375 -2.8438,1.5626 -5.7812,-1.4063 -1.625,-2.8437 7.2188,-3 -0.0626,-2.8438 12.9063,-4.625 1.2187,-5.75 2.7813,-2.9375 21.875,-0.4063 5.9063,5.625 1.2187,-4.2187 2.8437,-1.5625 4.4063,-0.0938 4.375,-1.4062 1.0937,-10.1562 -5.75,0.125 -7.5312,-8.6563 -4.375,-5.6563 -0.2188,-8.5624 -7.375,-4.25 2.8126,-1.4063 1.3124,-8.625 -13.0624,-1.2813 -0.1876,-7.25 -5.9687,-1.2187 4.1875,-8.6563 -13.0938,-1.2812 25.4376,-24.9062 5.7187,-1.6563 -4.3125,-4.0937 -7.375,-2.9376 -4.5312,-4.0937 5.25,-20.3437 -0.1876,-7.0626 2.8126,-3.0937 4.0312,-14.4063 -1.4062,-2.8437 4.0312,-7.3125 14.5938,1.25 10,1.1562 10.1562,-1.5312 -1.0625,11.4688 0.1563,5.7187 -1.4376,4.4375 -5.6562,2.9688 4.5,4.2812 2.9062,-0.0312 1.2813,-1.5626 2.8437,-1.375 4.5,2.7813 -0.0937,-2.875 2.8125,-3.0937 -1.75,-8.5626 1.4375,-2.9062 -1.5625,-1.2812 14.6562,2.5624 4.75,12.9063 0.0626,2.875 5.75,-0.125 3,4.1563 2.9374,2.8124 4.4688,1.4376 -2.9375,5.7812 1.6563,4.3438 2.875,-0.0313 -1.4688,-4.375 8.6562,-0.1563 3.875,-13.0624 7.25,-1.4688 -0.1562,-5.9062 2.9062,1.4687 5.6876,-2.9687 1.5,-1.5626 5.9062,5.8126 8.5938,-1.6876 -1.4376,-2.8437 5.5313,-8.6875 -3,-5.8438 1.2813,-1.375 -2.875,0.0626 -0.0626,-2.875 -3,-4.3126 2.6876,-7.3124 12.875,-7.3126 2.5624,-11.6874 -3,-5.6563 10.0626,-3.0625 4.2812,-5.8125 -2.9688,-2.8125 2.6563,-8.625 -3.0937,-8.7188 -0.0313,-1.3437 -6.25,-11.5313 -8.6875,-2.6874 -4.2812,-1.2813 -8.625,7.4375 -4.1563,2.9375 -10.3437,-7.0625 5.5312,-8.6875 5.6875,-2.9687 0.0937,4.1874 1.5626,-0.0312 9.7812,-14.5 2.9062,1.2812 8.5626,-3.0312 4.2187,-7.125 6.9063,-7.375 5.5624,-7.375 3.0938,-0.062 4.25,1.4687 2.8438,-1.5937 -7.4376,-12.8437 4.1563,-2.9376 -0.125,-4.375 -2.9375,-2.8124 2.75,-4.25 -0.0312,-1.5313 -1.5313,-7.2187 3.875,-12.875 1.5,-1.5625 2.9063,1.5 1.2812,-3.0938 4.3438,-2.9375 7.3437,2.7188 -5.4687,10.2187 2.9374,2.8125 7.125,1.4063 8.7188,-4.5625 -0.0312,-1.3438 8.5,-4.5312 10,-7.4375 -3.0313,-5.6875 -0.125,-4.1875 1.25,-4.4063 -7.1875,-2.75 -0.0625,-2.8437 -6.125,-7.1563 -2.875,0.062 -2.6563,8.625 7.5626,11.5 -2.8126,1.4063 -1.375,7.2812 -1.375,-1.5 -1.625,-4.1875 -2.9687,-2.7812 -5.7813,-1.4375 -7.25,1.6562 -4.1874,1.4063 -0.2188,-8.5625 -4.5,-2.7813 -1.4375,2.875 1.5625,1.5 -4.25,5.8125 -0.125,-4.375 -2.9375,-2.8125 2.75,-4.4375 -0.1875,-7.0625 2.6875,-7.3125 2.8125,-2.9062 4.4062,-0.094 -1.125,8.625 1.4376,2.8125 -2.7813,4.4375 2.9687,2.8125 4.2813,-4.4687 -1.6875,-5.6875 4.2812,-5.8125 4.125,-2.9375 5.8438,-4.5 5.75,-0.094 1.2812,-2.9062 -3,-4.3125 1.4688,-2.9063 -1.6875,-5.6875 -2.9687,-2.8125 -4.2813,-2.7812 -2.9063,5.7812 -1.25,4.4063 -4.4687,-2.7813 -0.125,-4.375 1.375,-5.75 1.1563,-7.2812 9.8124,-14.5 -0.0624,-2.875 -0.125,-4.375 1.375,-5.75 13.1562,4.1562 5.6875,-3.1875 4.0937,-4.25 -0.2187,-8.5937 -8.6563,-1.375 -4.3437,-4.3125 2.8125,-2.9063 1.1562,-7.0937 1.4688,-3.0625 -2.9688,-2.8125 -7.4374,-5.5938 -0.0938,-4.1875 10.9688,-20.4375 5.8437,2.75 8.5937,-8.75 2.75,-4.4375 -1.7187,-7.2187 1.4063,-5.7813 -3,-4.125 -0.9376,-0.9062 0,-5.6563 -12.4687,-4.5312 -4.9063,4.9375 -15.0937,-7.9375 -6.8125,-8.6875 -1.875,1.5 2.25,-15.4688 15.5,-12.4687 1.125,-5.6563 -10.1875,-7.5625 -3.1875,-9.0312 0.0312,0 -0.0937,-2.875 7,-4.3438 -3.2187,-12.9062 -13.0938,-2.625 1.4375,-2.875 5.7187,-1.6563 8.625,-0.1562 4.4063,-0.062 1.5937,1.5 8.5,-4.5625 3,4.3437 11.5,-0.2187 1.5313,-0.031 4.0313,-7.3437 11.7187,-0.1875 10.1563,-0.1875 5.7812,1.2187 7,-4.3437 5.9375,-0.094 -0.0625,-2.875 5.625,-4.5 8.7188,2.7188 7.25,-1.4688 1.2187,-0.9687 c -0.5952,-3.5869 -1.2573,-7.754 -1.7813,-11.9063 -0.5473,-4.3384 -0.9375,-8.6291 -0.9374,-12.125 0,-1.926 0.4856,-4.8502 0.9062,-7.5937 0.2103,-1.3718 0.3948,-2.6938 0.5,-3.8125 0.1052,-1.1188 0.1402,-2.0329 0,-2.5938 -0.1701,-0.6804 -1.5849,-4.3643 -2.5938,-7.875 -0.5044,-1.7553 -0.895,-3.476 -1,-4.75 -0.0524,-0.637 -0.0297,-1.1632 0.0938,-1.5312 0.1235,-0.3681 0.3372,-0.5625 0.6875,-0.5625 1.7087,0 2.9727,-0.033 3.9375,-0.125 0.9648,-0.093 1.6396,-0.2745 2.2188,-0.5938 0.5791,-0.3193 1.042,-0.7568 1.5937,-1.4375 0.5517,-0.6807 1.1801,-1.6047 2.0625,-2.7812 1.2904,-1.7205 3.6703,-4.2122 4.9688,-6.4375 0.3246,-0.5564 0.561,-1.0893 0.7187,-1.5938 0.1577,-0.5045 0.2324,-0.9869 0.1563,-1.4062 -0.0762,-0.4194 -0.2794,-0.793 -0.6563,-1.0938 -0.3769,-0.3008 -0.9428,-0.5073 -1.6875,-0.6562 -2.4286,-0.4858 -4.6602,-0.9898 -6.75,-1.8125 -1.0449,-0.4114 -2.0559,-0.9096 -3.0312,-1.5313 -0.9754,-0.6217 -1.9279,-1.3653 -2.8438,-2.2812 -0.7265,-0.7265 -1.5986,-1.3007 -2.5625,-1.6875 -0.9639,-0.3869 -1.9936,-0.5787 -3,-0.5625 -1.0064,0.016 -1.9899,0.2361 -2.8437,0.7187 -0.8539,0.4826 -1.5876,1.2064 -2.0938,2.2188 -0.2602,0.5203 -0.9201,1.5884 -1.8125,2.7812 -0.8924,1.1928 -2.0206,2.5359 -3.1563,3.5625 -0.5678,0.5133 -1.1317,0.9355 -1.6874,1.25 -0.5558,0.3145 -1.0988,0.5205 -1.5938,0.5313 -0.495,0.011 -0.9581,-0.1648 -1.3438,-0.5625 -0.3856,-0.3978 -0.7097,-1.0264 -0.9374,-1.9375 -0.2659,-1.0633 -0.1909,-1.8454 0.0624,-2.4688 0.2534,-0.6234 0.6995,-1.0997 1.2188,-1.5937 0.5193,-0.4941 1.0929,-0.981 1.625,-1.6563 0.5321,-0.6753 1.0207,-1.5205 1.3125,-2.6875 0.4443,-1.7772 0.8468,-4.3258 1.0313,-6.9062 0.0921,-1.2902 0.1425,-2.5954 0.0937,-3.8125 -0.0488,-1.2172 -0.1972,-2.351 -0.4375,-3.3125 -0.4226,-1.6905 -1.1451,-3.9347 -1.4062,-6.125 -0.1306,-1.0952 -0.1411,-2.1655 0.0624,-3.1563 0.2036,-0.9908 0.6103,-1.8916 1.3438,-2.625 0.5516,-0.5516 0.9258,-1.0357 1.1562,-1.4687 0.2305,-0.4331 0.3354,-0.8415 0.3126,-1.1875 -0.023,-0.3461 -0.1665,-0.647 -0.375,-0.9375 -0.2087,-0.2906 -0.4859,-0.546 -0.8126,-0.8125 -0.6532,-0.5332 -1.4686,-1.0615 -2.1874,-1.6875 -0.3595,-0.3131 -0.6945,-0.6478 -0.9688,-1.0313 -0.2743,-0.3835 -0.5036,-0.8271 -0.625,-1.3125 -0.3407,-1.3628 -0.7747,-2.3356 -1.2812,-3.0937 -0.5066,-0.7582 -1.068,-1.2992 -1.6876,-1.7813 -0.6195,-0.4821 -1.2891,-0.903 -1.9687,-1.4375 -0.6796,-0.5345 -1.3758,-1.1782 -2.0625,-2.0937 -0.7257,-0.9675 -1.6323,-2.7079 -2.875,-4.2188 -0.6213,-0.7554 -1.3264,-1.4626 -2.125,-1.9687 -0.7986,-0.5062 -1.7109,-0.8125 -2.7188,-0.8125 -2.1841,0 -4.095,0.2319 -5.9062,0.3437 -0.9056,0.056 -1.7782,0.073 -2.6562,0.031 -0.8781,-0.042 -1.7619,-0.1514 -2.6563,-0.375 -1.564,-0.3911 -3.9854,-0.3671 -6.4687,-0.4375 -1.2417,-0.035 -2.4809,-0.1113 -3.6563,-0.25 -1.1754,-0.1388 -2.2757,-0.3541 -3.1875,-0.7188 -2.6614,-1.0646 -4.4977,-1.5547 -5.9688,-2.4062 -0.7355,-0.4258 -1.3765,-0.9272 -2,-1.6563 -0.6234,-0.7291 -1.2087,-1.6674 -1.8437,-2.9375 -0.7144,-1.4287 -2.6568,-4.6681 -4.4063,-7.9375 -0.8747,-1.6347 -1.7011,-3.2784 -2.3124,-4.7187 -0.6114,-1.4404 -1,-2.6592 -1,-3.4688 0,-1.26 0.4089,-2.6406 1,-4.0625 0.591,-1.4219 1.3717,-2.9039 2.125,-4.3437 0.7532,-1.4399 1.482,-2.8427 1.9687,-4.1563 0.2433,-0.6568 0.4037,-1.2767 0.5,-1.875 0.0963,-0.5983 0.1355,-1.1658 0.0313,-1.6875 -0.176,-0.8798 -0.6731,-1.7838 -1.2813,-2.6875 -0.6082,-0.9037 -1.3346,-1.8219 -2.0313,-2.7187 -0.6966,-0.8969 -1.3713,-1.7657 -1.8124,-2.625 -0.4412,-0.8594 -0.6582,-1.7091 -0.5,-2.5 0.3562,-1.7814 0.9329,-3.6275 1.6562,-5.4063 0.7233,-1.7788 1.6044,-3.4794 2.5312,-5.0312 0.9269,-1.5519 1.908,-2.9309 2.875,-4.0313 0.0418,-0.047 0.0834,-0.047 0.125,-0.094 l -2.375,-2.4375 -15.8124,11.1562 -6.5313,-1.0937 -13.0937,-9.4375 -2.7188,-0.1563 -1.75,2.0938 -3.6875,12.5937 0.8125,3.1875 -13.0938,14.8438 -12.9374,1.75 -18.1876,7.8437 -10.2187,6.6875 -6.3125,-0.5625 -6.4375,-0.5625 -16.9375,14.2188 -22.3438,4.625 -1.5937,0.3125 -28.7187,-3.5 -1.5938,-0.1563 -1.125,-0.5 -0.9375,-0.3125 -4.3125,-1.4375 -8.7812,-7 -3.0313,-19.1562 -12.625,-14.8438 -0.4687,-2.4062 1.2812,-5.4375 20.0938,-16.9063 2.0937,-3.1875 1.125,-5.5937 -0.5,-4.3125 -11.3125,-19.125 -4.625,-1.2813 -4.125,0.7813 -5,0.9687 -3.6562,-1.9062 -1.4376,-12.4688 5.2813,-9.7187 2.5313,-11.3438 -4.3126,-11.6562 -0.1562,-3.8125 6.5625,-5.125 3.0313,-9.0938 -17.875,-45.9687 -20.75,-36.6875 -15.6563,-11.3438 -3.9687,-4.3125 0.1562,-6.8437 -2.7188,-4 -5.75,-3.5 -9.25,-0.3438 -35.5937,-0.1562 -23.1563,2.4062 -13.875,-5.125 -6.2187,-0.4687 -15,4.1562 -7.1875,3.1875 -12.7812,5.75 -4.625,0.4688 -8.2813,-1.9063 -14.0625,-12.125 -6.2188,-12.2812 -3.6562,-14.0625 -4.3125,-4.625 -0.6563,-0.4688 -17.2187,-20.2812 -7.6563,-6.375 -27.125,-1.2813 -7.1874,-2.875 -1,0.094 -19.5938,1.6562 -11.3438,-0.7812 -13.4062,-5.2813 -0.625,-0.3125 -1.75,-5.0937 -1.9375,-5.125 -5.7187,-2.875 -3.8438,0.4687 -11.5,10.2188 -4.1562,1.5937 -19.2813,-7.3437 -17.7187,-12.75 -27.1563,-14.5313 -14.3437,-4.4687 -24.5938,-7.8125 -15.4688,-1.5938 -22.1874,-10.8437 -3.5,-1.7813 -24.2813,-11.8125 z m 706.5937,734.4688 11.5626,2.625 -2.7188,5.7812 1.5625,1.5 -21.7187,-1.125 -10.3126,-5.5312 -1.5624,-1.3125 23.1874,-1.9375 z m 32.875,211.0625 -2.75,4.4687 -3,-4.3437 -2.875,0.0624 3.0313,5.6563 -2.875,0.0625 5.8125,2.75 1.6562,4.3438 5.4688,-10.2188 -4.4688,-2.7812 z"
         style="fill:red;fill-opacity:1;fill-rule:nonzero;stroke:#000000;stroke-width:2;stroke-miterlimit:4;stroke-dasharray:none;stroke-opacity:1"
         inkscape:connector-curvature="0" />
      <path
         id="path5847"
         d="m 810.09,-1558.062 c -0.0416,0.046 -0.0832,0.046 -0.125,0.094 -0.967,1.1004 -1.9481,2.4794 -2.875,4.0313 -0.9268,1.5518 -1.8079,3.2524 -2.5312,5.0312 -0.7233,1.7788 -1.3,3.6249 -1.6562,5.4063 -0.1582,0.7909 0.0588,1.6406 0.5,2.5 0.4411,0.8593 1.1158,1.7281 1.8124,2.625 0.6967,0.8968 1.4231,1.815 2.0313,2.7187 0.6082,0.9037 1.1053,1.8077 1.2813,2.6875 0.1043,0.5217 0.065,1.0892 -0.0313,1.6875 -0.0963,0.5983 -0.2567,1.2182 -0.5,1.875 -0.4867,1.3136 -1.2155,2.7164 -1.9687,4.1563 -0.7533,1.4398 -1.534,2.9218 -2.125,4.3437 -0.5911,1.4219 -1,2.8025 -1,4.0625 0,0.8096 0.3886,2.0284 1,3.4688 0.6113,1.4403 1.4377,3.084 2.3124,4.7187 1.7495,3.2694 3.6919,6.5088 4.4063,7.9375 0.635,1.2701 1.2203,2.2084 1.8437,2.9375 0.6235,0.7291 1.2645,1.2305 2,1.6563 1.4711,0.8515 3.3074,1.3416 5.9688,2.4062 0.9118,0.3647 2.0121,0.58 3.1875,0.7188 1.1754,0.1387 2.4146,0.2147 3.6563,0.25 2.4833,0.07 4.9047,0.046 6.4687,0.4375 0.8944,0.2236 1.7782,0.333 2.6563,0.375 0.878,0.042 1.7506,0.025 2.6562,-0.031 1.8112,-0.1118 3.7221,-0.3437 5.9062,-0.3437 1.0079,0 1.9202,0.3063 2.7188,0.8125 0.7986,0.5061 1.5037,1.2133 2.125,1.9687 1.2427,1.5109 2.1493,3.2513 2.875,4.2188 0.6867,0.9155 1.3829,1.5592 2.0625,2.0937 0.6796,0.5345 1.3492,0.9554 1.9687,1.4375 0.6196,0.4821 1.181,1.0231 1.6876,1.7813 0.5065,0.7581 0.9405,1.7309 1.2812,3.0937 0.1214,0.4854 0.3507,0.929 0.625,1.3125 0.2743,0.3835 0.6093,0.7182 0.9688,1.0313 0.7188,0.626 1.5342,1.1543 2.1874,1.6875 0.3267,0.2665 0.6039,0.5219 0.8126,0.8125 0.2086,0.2905 0.352,0.5914 0.375,0.9375 0.0229,0.346 -0.0821,0.7544 -0.3126,1.1875 -0.2304,0.433 -0.6046,0.9171 -1.1562,1.4687 -0.7335,0.7334 -1.1402,1.6342 -1.3438,2.625 -0.2035,0.9908 -0.193,2.0611 -0.0624,3.1563 0.2611,2.1903 0.9836,4.4345 1.4062,6.125 0.2403,0.9615 0.3887,2.0953 0.4375,3.3125 0.0488,1.2171 -0.002,2.5223 -0.0937,3.8125 -0.1844,2.5804 -0.587,5.129 -1.0313,6.9062 -0.2918,1.167 -0.7804,2.0122 -1.3125,2.6875 -0.5321,0.6753 -1.1057,1.1622 -1.625,1.6563 -0.5193,0.494 -0.9654,0.9703 -1.2188,1.5937 -0.2533,0.6234 -0.3283,1.4055 -0.0624,2.4688 0.2277,0.9111 0.5518,1.5397 0.9374,1.9375 0.3857,0.3977 0.8488,0.5732 1.3438,0.5625 0.495,-0.011 1.0379,-0.2168 1.5938,-0.5313 0.5557,-0.3145 1.1196,-0.7367 1.6874,-1.25 1.1357,-1.0266 2.2639,-2.3697 3.1563,-3.5625 0.8924,-1.1928 1.5523,-2.2609 1.8125,-2.7812 0.5062,-1.0124 1.2398,-1.7362 2.0938,-2.2188 0.8538,-0.4826 1.8373,-0.7026 2.8437,-0.7187 1.0064,-0.016 2.0361,0.1756 3,0.5625 0.9639,0.3868 1.836,0.961 2.5625,1.6875 0.9159,0.9159 1.8684,1.6595 2.8438,2.2812 0.9753,0.6217 1.9863,1.1199 3.0312,1.5313 2.0898,0.8227 4.3214,1.3267 6.75,1.8125 0.7447,0.1489 1.3106,0.3554 1.6875,0.6562 0.3769,0.3008 0.5801,0.6744 0.6563,1.0938 0.0761,0.4193 10e-4,0.9017 -0.1563,1.4062 -0.1577,0.5045 -0.3942,1.0374 -0.7187,1.5938 -1.2985,2.2253 -3.6784,4.717 -4.9688,6.4375 -0.8824,1.1765 -1.5108,2.1005 -2.0625,2.7812 -0.5517,0.6807 -1.0147,1.1182 -1.5937,1.4375 -0.5792,0.3193 -1.254,0.5013 -2.2188,0.5938 -0.9648,0.092 -2.2288,0.125 -3.9375,0.125 -0.3503,0 -0.564,0.1944 -0.6875,0.5625 -0.1235,0.368 -0.1462,0.8942 -0.0938,1.5312 0.105,1.274 0.4956,2.9947 1,4.75 1.0089,3.5107 2.4237,7.1946 2.5938,7.875 0.1402,0.5609 0.1052,1.475 0,2.5938 -0.1052,1.1187 -0.2897,2.4407 -0.5,3.8125 -0.4206,2.7435 -0.9062,5.6677 -0.9062,7.5937 -10e-5,3.4959 0.3901,7.7866 0.9374,12.125 0.524,4.1523 1.1861,8.3194 1.7813,11.9063 l 4.4063,-3.5313 4.4062,-0.094 8.5312,-4.5313 5.6876,-2.9687 2.9062,1.4687 5.7188,-1.625 1.5312,-0.031 5.7188,-1.4375 4.375,-1.625 2.75,-4.25 8.5937,-1.6875 11.6563,5.5312 13.0937,1.2813 1.7187,7.0312 7.125,-5.875 2.9688,2.8125 19.0938,11.2813 7.0937,-0.125 7.125,-5.8438 7.25,-1.6875 8.625,-0.1562 10.2813,4.2187 5.875,4.0938 7.375,4.25 5.8437,2.75 4.4375,1.4375 -2.7188,5.7812 -10,5.9063 -1.4687,2.9062 -5.625,5.8125 -4.1875,8.6875 -5.5625,7.3438 0.062,1.5312 -1.0938,10.125 -1.4374,4.25 -5.625,4.4688 4.5624,5.6562 4.4688,10.0313 2.8125,-2.9063 7.2187,-3 7.3126,1.1875 -1.4376,4.4375 -1.2187,4.2188 1.7187,14.4687 4.4376,1.25 4.25,1.4375 -2.7813,2.9375 1.75,8.5625 -2.7187,5.75 -10.1876,0.1875 -5.8437,-4.0625 -4.3125,4.25 -1.1875,5.9688 -4.3125,4.25 -11.4688,1.75 -1.5937,-2.8438 -5.9063,-5.5937 5.5,-10.2188 -1.4374,-2.8437 -3.2188,-5.875 7.2188,-2.9688 -14.375,0.25 -10.25,-2.6562 -5.7813,-1.25 0.5,18.7187 10.125,-1.7187 8.625,-0.1563 -1.4375,4.4063 1.6562,4.3437 7.6563,14.1875 1.4063,2.8438 0.125,4.375 15.8437,-3.1563 5.875,4.0938 4.5313,5.6562 5.7187,-1.4375 2.9687,2.7813 4.5313,4.3125 1.375,1.3125 1.5,-1.3438 5.6563,-3.1875 -0.063,-2.8437 10.1876,1.3437 5.6874,-2.9687 4.5313,4.0937 0.2187,8.7813 1.375,1.3125 0.063,2.875 1.625,2.8125 10.3437,7.0625 5.8437,2.7812 8.4063,-8.75 5.5313,-8.6875 11.5624,-4.625 17.3126,1.2188 1.5937,2.8125 0.1563,5.75 4.2187,-0.094 5.75,-0.094 1.4375,-4.4375 2.9375,2.8125 2.8437,-1.375 -1.5,-5.7188 1.25,-4.4062 1.5,-1.5625 18.7188,-3.1875 3.0312,5.8437 10.125,-1.7187 4.125,-2.9375 4.3438,-2.9375 2.9375,2.8125 5.8125,1.2187 2.3125,-0.031 -2.6563,5.4375 8.9688,5.8437 7.625,-4.0625 2.4688,6.0625 -4.0313,14.125 4.4687,1.3438 -8.2812,7.8125 14.7812,-3.7813 2.6876,-6.7187 19.25,-5.1563 14.5624,0.6563 4.5,4.0312 1.0626,0.094 1.1562,4.7812 3.0312,5.8438 13.0626,-0.25 1.375,1.3125 -3.9688,10.1875 1.375,1.5 0.031,1.3437 6,8.5 2.9688,4.3125 0.094,2.875 7.4687,7.125 4.4375,1.25 4.1875,-1.4375 12.8125,-9 1.4375,-4.2187 4.4375,1.25 7.1562,2.7187 2.9688,3 1.6875,5.6875 4.3437,-2.9375 8.625,-0.1562 4.3438,5.6562 0.094,2.8438 -2.8126,2.9375 -6.9687,4.5 3,5.6875 13.375,12.7187 1.4063,1.3125 -2.75,5.7813 -2.7813,3.0937 -2.875,0.062 0.2187,8.5938 7.3438,2.7187 -4.3438,2.9375 1.6563,4.375 -8.75,3.0313 -4.125,2.9375 -1.625,-2.8438 -1.4063,-2.8437 -1.4374,4.2187 -5.6876,2.9688 13.2813,8.5625 -5.6875,2.9687 0.125,4.1875 -4.3438,2.9375 1.5,5.9063 -8.625,0.1562 -4.1562,2.9375 -1.5625,-1.5 -2.875,0.062 -1.5937,-1.3125 -4.25,-1.4687 -2.9376,-2.8125 -7.1874,4.5312 0.125,4.2188 4.4062,-0.094 4.3438,5.6562 0.125,4.375 -2.6876,7.3126 4.5626,5.625 1.2812,-2.875 4.4062,-0.094 4.4376,1.25 2.9062,1.5 1.4375,2.8125 7.2813,-0.125 4.6874,11.375 0.1563,5.9063 0.125,4.1874 -7.0937,7.4063 -1.4688,2.875 -5.6562,4.5 -4.2813,4.2813 -5.6875,2.9687 -0.8125,3.875 -10.0313,-3 -4.6874,-7.5937 -2.0313,4.6874 -10.5,-3.5937 -1.5625,7.625 -6.0625,3.125 -7.8125,8.0625 -2.25,5.8125 -5.8125,-2.9063 -4.4687,-7.375 -0.2188,-3.1562 -2.25,4.0312 -3.5938,-3.3437 -4,1.3437 -14.7812,-6.5 -9.4062,12.0938 3.8124,9.625 2.25,1.5625 -4.9374,10.5 6.9374,13 8.5,8.9375 -2,9.1875 6.6876,12.75 13.875,6.0313 8.0624,-4.0313 7.375,4.25 14.125,2.9063 4.2813,-3.5626 3.375,0.9376 8.625,-0.1563 8.8125,7.0937 1.75,8.5313 8.75,4.25 11.4062,-4.5937 -2.625,10.1562 10.3438,7.0625 8.7812,5.5625 1.5313,-0.0312 14.4687,2.5937 1.6876,5.6875 -2.8126,2.9375 3,4.3125 -1.5,1.5625 7.4376,5.5937 4.5312,5.625 -1.4062,4.4376 3.0624,7 10.2813,4.1874 11.3437,-5.9374 5.9063,-1.625 2.9375,1.4687 15.8438,-3.1563 -0.125,0.625 10.8437,-3.3437 3.9375,-6.3437 8.625,0.6874 2.75,-5.1874 8.9688,2.0937 7.375,5.8437 2.9374,-1.375 -2.75,-5.875 7.0626,1.4063 1.7187,4.2813 12.9063,1.375 8.4374,-3.5938 12.2188,5.5 0.1875,1.875 14,9.25 24.7187,-1.8125 0.125,4.4063 -8.6874,5.875 5.125,27.1874 -1.3126,8.625 -8.4062,8.9376 6.0625,12.6874 0.062,1.5313 3.0312,4.6563 4.6563,3.625 3.1875,-2.6876 2.0938,-5.2812 2.5312,-6.6875 12.2812,-7.6875 8.4688,-9.4062 19.9688,-7.9688 17.375,-1.5938 5.5937,-4.3124 6.875,0.3124 7.1563,-5.9062 3.5312,1.2812 5.0938,-0.4687 14.5312,-8 7.8125,-6.375 17.5625,-18.5 7.6562,-10.7187 7.3438,-6.2188 4.7812,-1.0938 1.6876,-0.3437 2.9374,-0.625 1.125,-1.125 0,-12.125 0.4688,-0.1563 3.5312,-1.4374 11.9688,-0.9688 2.5312,-5.5625 6.7188,-1.125 7.0312,-8.1563 6.6876,-2.5312 4.1562,-13.9062 3.8438,-11.4688 22.1562,-23.625 8.7812,-5.125 6.4063,-2.0625 0.625,-0.1563 3.5,5.25 2.5625,-0.3124 8.7812,-5.4376 0.4688,-5.7187 1.75,-1.9375 2.875,-3.3438 2.4062,0.3126 2.25,0.5 10.5313,-1.5938 3.9687,-1.9375 2.0938,-3.9687 3.3438,-15.5 6.0624,-7 8.125,-1.4376 1.7813,-0.3437 2.5313,-4.9375 -0.3126,-2.0625 -0.4687,-2.0937 1.4375,-9.0938 2.0625,-5.0938 3.5,-1.75 1.125,-5.9062 -0.7813,-6.4062 1.5938,-9.0938 3.8125,-6.8438 3.5313,-2.25 0,-5.25 -2.5626,-13.0937 -3.8437,-4.3125 -6.2187,0.1563 -7.5,-7.6563 -4.3126,-6.2187 1.4376,-19 -0.3126,-4.3125 -3.1874,-6.6875 -5.75,-4 -13.875,0.1562 -21.0626,-6.5312 7,-0.5 20.2813,3.5312 14.6875,-1.5937 0.7812,-19.8125 1.75,-4.9375 3.5313,-1.4375 3.3437,1.75 4,-4.625 -4.4687,-14.5313 -11.1875,-18.9687 -2.5312,-3.5313 -6.25,-8.7812 -5.7188,-0.625 -0.5,-2.875 1.9062,-4.1563 -2.8437,-4.1562 -6.7187,0.1875 -3.4376,-2.9688 -2.4687,-2.1562 -3.1875,-0.3125 -3.3438,4.1562 -2.25,-0.3437 -0.625,-7 -8.1562,-4.4688 -4.125,-4.4687 -2.7188,-7.1875 -1.4374,-10.6875 -2.0938,-14.375 0,-14.1875 -2.0625,-7.5 0.3125,-7.6875 -2.375,-4.625 -8.7812,9.5937 -5.75,1.9063 -3.8438,4.3125 -4.4688,4.7812 -9.4062,0.4688 -5.5938,6.5625 -8.625,5.25 -0.625,-1.5938 6.375,-6.0625 4.625,-7.1875 12.3126,-1.4375 3.3437,-5.4062 0,-0.1563 8.9375,-4.1562 9.7188,-11 2.7187,-1.4375 4.1563,-6.875 5.5937,-22.6563 -8.625,-5.4375 -1.75,-3.1875 2.375,-0.4687 9.4375,3.5 10.8438,-11.8125 11.6562,-9.5625 5.0938,-2.0938 6.7187,0 1.9063,2.875 2.5624,3.8438 0.1563,6.375 2.2187,2.875 8,0.8125 10.2188,9.25 3.1875,0.4687 4.9375,6.875 2.5625,-4 2.7187,-4.1562 0.7813,-8.9375 1.125,-1.2813 4.1563,1.2813 2.6874,-1.4375 1.7813,-1.125 0.1563,0.5 2.7187,8.125 3.8125,2.7187 7.8125,0.4688 1.7813,1.125 1.25,-3.0313 -1.25,-1.5937 -5.5938,-2.0625 -1.5938,-7.0313 16.2813,-4 4.9375,-6.6875 2.7188,-5.75 -6.875,-10.375 0.3124,-4.9375 1.125,-2.25 4.1563,1.5938 5.4375,1.9062 1.4062,-3.5 -5.5624,-4.9375 -0.3126,-2.7187 4.7813,-5.9063 -1.75,-2.2187 0.9375,-2.0938 4.7812,-1.125 5.75,-7.9687 9.25,-2.875 0.9688,-3.0313 -0.7812,-1.75 -4.9688,-0.6562 -2.5312,-3.3438 -5.2813,0 -3.6563,-2.5312 -4.8124,2.2187 -6.6876,-7.8125 -0.8124,-3.6875 -4.7813,-0.1562 -5.4375,-4.9375 -1.25,0.3125 -1.7812,5.5937 -3.5,0.3125 -0.7813,0 -3.5313,4.4688 -1.9062,-3.1875 -3.5,-1.4375 -2.5625,-3.3438 0.625,-5.75 -3.3437,-4 -8.125,1.2813 -4.1563,-3.0313 -4,2.4063 -6.6875,0 -1.5938,4.125 1.5938,5.2812 -2.875,3.8125 -2.25,-0.1562 -9.25,-9.7188 1.5938,-4.4687 -5.9063,-1.5938 -9.9063,-11.0312 1.9376,-3.8125 -0.6563,-2.0938 -4.3125,-0.7812 -1.75,-1.9063 0.8125,-1.5937 -2.0937,-5.5938 1.2812,-4.9687 4.4688,-5.4063 -0.7813,-1.2812 -3.6875,0.3125 -1.5938,-2.5625 5.5938,-8.5938 -2.0625,-1.4375 -3.6875,0.7813 -0.3125,-1.75 9.4063,-10.5313 1.2812,-5.9062 -1.125,-2.4063 -3.8125,-0.625 -1.125,-2.2187 6.2187,-6.0938 -4.4687,-1.5937 -2.7187,-0.7813 -0.1563,-0.1562 -7.1875,-0.3125 -0.7812,0 -10.0626,-0.1875 -7.6562,-1.25 -3.6562,0.3125 -4.1563,0 -4,2.875 -3.5,3.3437 -0.6563,1.5938 -3.1874,1.5937 -3.3438,-0.7812 -3.5,-0.8125 -4,-1.2813 -7.0312,-5.75 -2.375,-1.0937 -4.9688,-8.7813 -2.5312,-1.75 -5.125,-4 -1.5938,-1.75 -3.5,-8.3125 -2.4062,-6.375 -2.0626,-6.375 -1.7812,-0.9687 -3.1875,0 -4.7813,2.875 -7.3437,4.4687 -2.875,-0.3125 -2.2187,-0.1875 -2.5626,-2.2187 -25.5312,7.6562 -6.0625,-2.875 -10.0625,-0.3125 -16.9062,10.2188 -4.7813,1.4375 -7.8437,0.9375 -18.8126,-2.8438 -6.875,-0.9687 -5.5937,0.4687 -2.875,1.9063 -3.6563,2.5625 -26.3437,25.5312 -6.6875,14.0625 -4.9688,3.3438 -14.8124,0.1562 -23.625,-5.9062 -6.875,0.3125 -14.0313,3.5312 -8.625,2.2188 -12.9375,8.4687 -13.875,14.1875 -5.9062,4.1563 -3.0313,4.625 3.8125,12.9375 11.0312,11.9687 3.1876,5.2813 0.625,3.9687 -1.25,2.875 -4.8126,2.875 -8.9374,1.4375 -8.5938,-1.2812 -6.4062,-0.9375 -24.875,-8.625 -20.75,-3.5313 -9.4376,0.1563 -19.3124,12.625 -0.75,0.094 -9.2813,1.1875 -4.7187,-1.25 -3.2813,-0.8437 -9.7187,-0.3125 -7.3438,-4.3125 -23,-13.4063 -4.7812,-2.875 -1.5938,-3.3437 -0.1562,-0.1563 -4.4688,-3.5 -16.75,-20.2812 -49.8125,-17.7188 -1.9063,-0.9375 -8.7812,-4.6562 -17.2188,-12.125 -36.5624,-4.625 -14.5313,2.5625 -8.125,3.6562 -6.7187,6.0625 -10.0313,3.6875 -6.2187,0.3125 -5.2813,-2.2187 -9.4063,-3.8438 -18.6874,-1.4375 -13.0938,14.2188 -15.625,25.5312 -13.0938,12.2813 -16.5937,9.25 -7.9687,1.9062 -8.4688,2.0938 -10.375,0.9687 -11.8125,-1.125 -1.0313,-0.3437 -6.3124,-2.0625 -4.9376,-4.9375 -19.9687,-10.5313 -4.7813,-4.7812 -3.9687,-9.4375 0.625,-11.8125 -2.5625,-8.5938 -3.3438,-11.1875 -2.5624,-4.7812 -1.4376,-2.7188 -0.1562,-0.625 -0.625,-3.6875 -0.5,-1.9062 -2.6875,-3.3438 -4.4687,-5.9062 -8.4688,-6.7188 -8.625,-0.9375 -3.1875,1.9063 -3.8437,2.2187 -6.2188,-0.4687 -27.5938,-17.5625 -10.5312,-11.3125 -12.625,-8.4688 -43.0938,0.3125 -2.2187,-0.7812 -21.4063,-6.875 -3.5,-3.625 z m 181,3.4687 -1.125,0.7813 -1.4374,4.6562 -14.5313,16.5938 -3.0313,15.3125 8.4688,5.9062 5.25,1.5938 24.9062,2.7187 1.9063,-3.8437 -0.625,-1.75 -0.6563,-1.5938 -1.75,-2.875 -6.6874,-4.7812 -3.5313,-2.5625 -3.1875,-7.9688 0.3125,-3.3437 2.0937,-16.9375 -3.5312,-1.125 -2.8438,-0.7813 z m 30.6563,352.5313 1.4063,1.5 -1.2813,2.875 -1.5,1.375 -9.9375,1.7187 0.094,2.8438 0.031,1.5312 3.0938,8.5313 0.062,2.875 1.375,1.3125 4.375,-1.4375 1.3126,-1.5313 1.4374,-4.25 -0.1874,-7.25 8.5,-4.5312 -0.031,-1.3438 -4.2813,-2.7812 -4.4687,-1.4375 z"
         style="fill:green;fill-opacity:1;fill-rule:nonzero;stroke:#000000;stroke-width:2;stroke-miterlimit:4;stroke-dasharray:none;stroke-opacity:1"
         inkscape:connector-curvature="0" />
      <path
         id="path5845"
         d="m 937.3713,-1386.2495 -8.5937,1.6875 -2.75,4.25 -4.375,1.625 -5.7188,1.4375 -1.5312,0.031 -5.7188,1.625 -2.9062,-1.4687 -5.6876,2.9687 -8.5312,4.5313 -4.4062,0.094 -5.625,4.5 -7.25,1.4688 -8.7188,-2.7188 -5.625,4.5 0.0625,2.875 -5.9375,0.094 -7,4.3437 -5.7812,-1.2187 -10.1563,0.1875 -11.7187,0.1875 -4.0313,7.3437 -1.5313,0.031 -11.5,0.2187 -3,-4.3437 -8.5,4.5625 -1.5937,-1.5 -4.4063,0.062 -8.625,0.1562 -5.7187,1.6563 -1.4375,2.875 13.0938,2.625 3.2187,12.9062 -7,4.3438 0.0937,2.875 -0.0312,0 3.1875,9.0312 10.1875,7.5625 -1.125,5.6563 -15.5,12.4687 -2.25,15.4688 1.875,-1.5 6.8125,8.6875 15.0937,7.9375 4.9063,-4.9375 12.4687,4.5312 0,5.6563 0.9376,0.9062 3,4.125 -1.4063,5.7813 1.7187,7.2187 -2.75,4.4375 -8.5937,8.75 -5.8437,-2.75 -10.9688,20.4375 0.0938,4.1875 7.4374,5.5938 2.9688,2.8125 -1.4688,3.0625 -1.1562,7.0937 -2.8125,2.9063 4.3437,4.3125 8.6563,1.375 0.2187,8.5937 -4.0937,4.25 -5.6875,3.1875 -13.1562,-4.1562 -1.375,5.75 0.125,4.375 0.0624,2.875 -9.8124,14.5 -1.1563,7.2812 -1.375,5.75 0.125,4.375 4.4687,2.7813 1.25,-4.4063 2.9063,-5.7812 4.2813,2.7812 2.9687,2.8125 1.6875,5.6875 -1.4688,2.9063 3,4.3125 -1.2812,2.9062 -5.75,0.094 -5.8438,4.5 -4.125,2.9375 -4.2812,5.8125 1.6875,5.6875 -4.2813,4.4687 -2.9687,-2.8125 2.7813,-4.4375 -1.4376,-2.8125 1.125,-8.625 -4.4062,0.094 -2.8125,2.9062 -2.6875,7.3125 0.1875,7.0625 -2.75,4.4375 2.9375,2.8125 0.125,4.375 4.25,-5.8125 -1.5625,-1.5 1.4375,-2.875 4.5,2.7813 0.2188,8.5625 4.1874,-1.4063 7.25,-1.6562 5.7813,1.4375 2.9687,2.7812 1.625,4.1875 1.375,1.5 1.375,-7.2812 2.8126,-1.4063 -7.5626,-11.5 2.6563,-8.625 2.875,-0.062 6.125,7.1563 0.0625,2.8437 7.1875,2.75 -1.25,4.4063 0.125,4.1875 3.0313,5.6875 -10,7.4375 -8.5,4.5312 0.0312,1.3438 -8.7188,4.5625 -7.125,-1.4063 -2.9374,-2.8125 5.4687,-10.2187 -7.3437,-2.7188 -4.3438,2.9375 -1.2812,3.0938 -2.9063,-1.5 -1.5,1.5625 -3.875,12.875 1.5313,7.2187 0.0312,1.5313 -2.75,4.25 2.9375,2.8124 0.125,4.375 -4.1563,2.9376 7.4376,12.8437 -2.8438,1.5937 -4.25,-1.4687 -3.0938,0.062 -5.5624,7.375 -6.9063,7.375 -4.2187,7.125 -8.5626,3.0312 -2.9062,-1.2812 -9.7812,14.5 -1.5626,0.0312 -0.0937,-4.1874 -5.6875,2.9687 -5.5312,8.6875 10.3437,7.0625 4.1563,-2.9375 8.625,-7.4375 4.2812,1.2813 8.6875,2.6874 6.25,11.5313 0.0313,1.3437 3.0937,8.7188 -2.6563,8.625 2.9688,2.8125 -4.2812,5.8125 -10.0626,3.0625 3,5.6563 -2.5624,11.6874 -12.875,7.3126 -2.6876,7.3124 3,4.3126 0.0626,2.875 2.875,-0.0626 -1.2813,1.375 3,5.8438 -5.5313,8.6875 1.4376,2.8437 -8.5938,1.6876 -5.9062,-5.8126 -1.5,1.5626 -5.6876,2.9687 -2.9062,-1.4687 0.1562,5.9062 -7.25,1.4688 -3.875,13.0624 -8.6562,0.1563 1.4688,4.375 -2.875,0.0313 -1.6563,-4.3438 2.9375,-5.7812 -4.4688,-1.4376 -2.9374,-2.8124 -3,-4.1563 -5.75,0.125 -0.0626,-2.875 -4.75,-12.9063 -14.6562,-2.5624 1.5625,1.2812 -1.4375,2.9062 1.75,8.5626 -2.8125,3.0937 0.0937,2.875 -4.5,-2.7813 -2.8437,1.375 -1.2813,1.5626 -2.9062,0.0312 -4.5,-4.2812 5.6562,-2.9688 1.4376,-4.4375 -0.1563,-5.7187 1.0625,-11.4688 -10.1562,1.5312 -10,-1.1562 -14.5938,-1.25 -4.0312,7.3125 1.4062,2.8437 -4.0312,14.4063 -2.8126,3.0937 0.1876,7.0626 -5.25,20.3437 4.5312,4.0937 7.375,2.9376 4.3125,4.0937 -5.7187,1.6563 -25.4376,24.9062 13.0938,1.2812 -4.1875,8.6563 5.9687,1.2187 0.1876,7.25 13.0624,1.2813 -1.3124,8.625 -2.8126,1.4063 7.375,4.25 0.2188,8.5624 4.375,5.6563 7.5312,8.6563 5.75,-0.125 -1.0937,10.1562 -4.375,1.4062 -4.4063,0.0938 -2.8437,1.5625 -1.2187,4.2187 -5.9063,-5.625 -21.875,0.4063 -2.7813,2.9375 -1.2187,5.75 -12.9063,4.625 0.0626,2.8438 -7.2188,3 1.625,2.8437 5.7812,1.4063 2.8438,-1.5626 1.4375,4.375 7.4063,4.25 5.8437,2.75 10.1563,-0.1874 -1.0626,11.4687 -9.9687,7.4375 0.125,4.1875 11.5,-0.2187 2.75,-4.25 7.25,-1.6563 23.5625,12.5625 -17.125,13.2812 3,4.3438 8.7812,-1.6875 1.4376,4.375 0.3124,11.4375 -8.7187,-2.7188 -7.0937,7.4063 -16,-2.5625 -4.1876,8.6562 -1.1874,5.75 0.1562,5.7188 2.9062,1.4688 1.625,4.1874 5.8438,2.75 4.2812,2.7813 1.5,-1.375 1.4376,2.8437 13.0937,2.625 9.0313,7.0938 0.0312,1.3125 5.75,-0.0937 4.2812,2.7812 5.9376,-0.0938 1.5312,7.2188 5.8438,2.75 1.6874,5.6875 0.2188,8.7813 -12.625,16.0937 4.5625,5.625 0.0625,2.875 14.375,-0.2813 0.0312,1.5313 -7.1874,3 -4.2813,-1.4375 -1.3437,7.25 5.8437,2.7812 -1.2813,2.875 -1.4687,2.9063 2.9687,2.7813 3.1563,11.4062 -4.125,3.125 -2.6875,7.125 -2.75,5.7812 -1.4062,4.4063 25.75,-13.4687 7.4374,5.5937 12.9063,2.625 7.5313,8.6563 3.0624,7 4.4376,1.4374 4.375,-1.5937 5.8124,2.9375 0.125,4.1875 1.3126,-1.3437 2.9062,1.2812 1.7188,7.2188 -5.7188,1.4374 -8.5625,10.2813 4.5313,4.3125 1.75,8.5625 4.4062,7.1563 0.1562,5.7187 2.875,-0.0313 11.8438,5.5 0.0312,1.5313 -4.1562,10.1875 0.125,4.1875 1.5312,-0.0313 8.7813,5.5626 7.3437,2.75 2.7188,-7.125 6.9688,-4.5313 1.5624,1.5 2.8126,-2.9063 2.9062,1.2813 -2.7812,2.9063 -2.875,0.0624 0.0937,4.375 1.3437,0 -1.1562,7.25 -4.25,5.8126 4.5625,5.6562 -4.2813,5.8125 0.0313,1.5 -1.1563,7.0937 -2.875,0.0626 -5.8124,4.5 -5.8438,-2.75 -2.875,0.0312 -0.0312,-1.5312 -1.375,-1.3126 -1.5938,-1.4687 -17.3125,-2.5625 4.3437,5.6562 0.1563,5.7188 6.0937,12.875 7.3126,1.375 5.7187,-1.625 5.875,4.2812 4.5313,4.3126 4.5,4.125 5.7187,-1.4688 1.25,-4.4062 1.4687,-2.875 5.6563,-2.9688 3.0313,5.6562 -1.125,8.625 2.9687,2.8126 4.4375,8.6874 -1.3125,1.375 -3,-4.1562 -4.4063,0.0938 0.2188,8.5624 3.0625,7.2188 1.2187,3.7812 0.4063,-0.0624 10.875,-1.5313 11.9687,-8.1563 9.5626,-2.6874 8.9374,-5.4376 7.1876,0.1563 35.75,-7.8125 7.3437,-2.25 12.125,-8.4375 11.5,1.4375 6.8437,-2.25 12.7813,0.9688 13.4063,-9.5938 3.5,-1.2812 10.0624,0 20.9063,-10.8438 12.625,-3.5 3.6563,-0.9688 21.8437,-4.125 4.3437,-0.8124 37.1876,-1.75 41.3124,-12.7813 9.0938,-4.1563 18.2188,-8.125 19.4687,-18.0312 4.3125,-9.4375 1.0938,-4.9375 0.3437,-1.4375 2.5313,-10.375 3.6874,-15.625 12.2813,-14.2187 1.125,2.5624 -4,7.8126 2.25,0.6562 7,-8.625 5.125,-13.9062 6.0625,-11.3126 12.2812,-12.7812 9.75,-12.5938 2.8438,-4.9374 1.125,-2.0938 8.1562,-14.5312 4.625,-7.9688 9.25,-7.9688 4.3126,-2.7187 9.5312,-6.0625 6.75,-4.3125 24.875,-7.3437 21.4062,-8.125 29.5313,-17.875 15,-11.1876 30.7813,-22.9687 7.1874,-5.2813 25.0626,-7.9687 11.6562,-9.25 18.5,-11.0313 6.5625,0 11.625,-6.375 19.8125,-6.0624 7.8125,-5.4376 3.5,-2.2187 18.5313,-6.0625 12.125,-7.0312 18.6562,-5.75 42.3125,-23.7813 15.4687,-3.1875 4.1563,-0.9688 2.875,-1.9062 -9.75,-12.4375 -3.3437,-4.1563 -1.4376,-1.75 -4.625,-11.9687 -7.6562,-7.1875 -6.375,-5.75 1.5938,-0.9688 4.9374,3.375 7.5,5.25 8.125,16.5938 0.3438,0.6562 3.0312,3.6563 4.3126,5.4375 0.4374,0.3438 -3.0312,-4.6563 -0.062,-1.5313 -6.0625,-12.6874 8.4062,-8.9376 1.3126,-8.625 -5.125,-27.1874 8.6874,-5.875 -0.125,-4.4063 -24.7187,1.8125 -14,-9.25 -0.1875,-1.875 -12.2188,-5.5 -8.4374,3.5938 -12.9063,-1.375 -1.7187,-4.2813 -7.0626,-1.4063 2.75,5.875 -2.9374,1.375 -7.375,-5.8437 -8.9688,-2.0937 -2.75,5.1874 -8.625,-0.6874 -3.9375,6.3437 -10.8437,3.3437 0.125,-0.625 -15.8438,3.1563 -2.9375,-1.4687 -5.9063,1.625 -11.3437,5.9374 -10.2813,-4.1874 -3.0624,-7 1.4062,-4.4376 -4.5312,-5.625 -7.4376,-5.5937 1.5,-1.5625 -3,-4.3125 2.8126,-2.9375 -1.6876,-5.6875 -14.4687,-2.5937 -1.5313,0.0312 -8.7812,-5.5625 -10.3438,-7.0625 2.625,-10.1562 -11.4062,4.5937 -8.75,-4.25 -1.75,-8.5313 -8.8125,-7.0937 -8.625,0.1563 -3.375,-0.9376 -4.2813,3.5626 -14.125,-2.9063 -7.375,-4.25 -8.0624,4.0313 -13.875,-6.0313 -6.6876,-12.75 2,-9.1875 -8.5,-8.9375 -6.9374,-13 4.9374,-10.5 -2.25,-1.5625 -3.8124,-9.625 9.4062,-12.0938 14.7812,6.5 4,-1.3437 3.5938,3.3437 2.25,-4.0312 0.2188,3.1562 4.4687,7.375 5.8125,2.9063 2.25,-5.8125 7.8125,-8.0625 6.0625,-3.125 1.5625,-7.625 10.5,3.5937 2.0313,-4.6874 4.6874,7.5937 10.0313,3 0.8125,-3.875 5.6875,-2.9687 4.2813,-4.2813 5.6562,-4.5 1.4688,-2.875 7.0937,-7.4063 -0.125,-4.1874 -0.1563,-5.9063 -4.6874,-11.375 -7.2813,0.125 -1.4375,-2.8125 -2.9062,-1.5 -4.4376,-1.25 -4.4062,0.094 -1.2812,2.875 -4.5626,-5.625 2.6876,-7.3126 -0.125,-4.375 -4.3438,-5.6562 -4.4062,0.094 -0.125,-4.2188 7.1874,-4.5312 2.9376,2.8125 4.25,1.4687 1.5937,1.3125 2.875,-0.062 1.5625,1.5 4.1562,-2.9375 8.625,-0.1562 -1.5,-5.9063 4.3438,-2.9375 -0.125,-4.1875 5.6875,-2.9687 -13.2813,-8.5625 5.6876,-2.9688 1.4374,-4.2187 1.4063,2.8437 1.625,2.8438 4.125,-2.9375 8.75,-3.0313 -1.6563,-4.375 4.3438,-2.9375 -7.3438,-2.7187 -0.2187,-8.5938 2.875,-0.062 2.7813,-3.0937 2.75,-5.7813 -1.4063,-1.3125 -13.375,-12.7187 -3,-5.6875 6.9687,-4.5 2.8126,-2.9375 -0.094,-2.8438 -4.3438,-5.6562 -8.625,0.1562 -4.3437,2.9375 -1.6875,-5.6875 -2.9688,-3 -7.1562,-2.7187 -4.4375,-1.25 -1.4375,4.2187 -12.8125,9 -4.1875,1.4375 -4.4375,-1.25 -7.4687,-7.125 -0.094,-2.875 -2.9688,-4.3125 -6,-8.5 -0.031,-1.3437 -1.375,-1.5 3.9688,-10.1875 -1.375,-1.3125 -13.0626,0.25 -3.0312,-5.8438 -1.1562,-4.7812 -1.0626,-0.094 -4.5,-4.0312 -14.5624,-0.6563 -19.25,5.1563 -2.6876,6.7187 -14.7812,3.7813 8.2812,-7.8125 -4.4687,-1.3438 4.0313,-14.125 -2.4688,-6.0625 -7.625,4.0625 -8.9688,-5.8437 2.6563,-5.4375 -2.3125,0.031 -5.8125,-1.2187 -2.9375,-2.8125 -4.3438,2.9375 -4.125,2.9375 -10.125,1.7187 -3.0312,-5.8437 -18.7188,3.1875 -1.5,1.5625 -1.25,4.4062 1.5,5.7188 -2.8437,1.375 -2.9375,-2.8125 -1.4375,4.4375 -5.75,0.094 -4.2187,0.094 -0.1563,-5.75 -1.5937,-2.8125 -17.3126,-1.2188 -11.5624,4.625 -5.5313,8.6875 -8.4063,8.75 -5.8437,-2.7812 -10.3437,-7.0625 -1.625,-2.8125 -0.063,-2.875 -1.375,-1.3125 -0.2187,-8.7813 -4.5313,-4.0937 -5.6874,2.9687 -10.1876,-1.3437 0.063,2.8437 -5.6563,3.1875 -1.5,1.3438 -1.375,-1.3125 -4.5313,-4.3125 -2.9687,-2.7813 -5.7187,1.4375 -4.5313,-5.6562 -5.875,-4.0938 -15.8437,3.1563 -0.125,-4.375 -1.4063,-2.8438 -7.6563,-14.1875 -1.6562,-4.3437 1.4375,-4.4063 -8.625,0.1563 -10.125,1.7187 -0.5,-18.7187 5.7813,1.25 10.25,2.6562 14.375,-0.25 -7.2188,2.9688 3.2188,5.875 1.4374,2.8437 -5.5,10.2188 5.9063,5.5937 1.5937,2.8438 11.4688,-1.75 4.3125,-4.25 1.1875,-5.9688 4.3125,-4.25 5.8437,4.0625 10.1876,-0.1875 2.7187,-5.75 -1.75,-8.5625 2.7813,-2.9375 -4.25,-1.4375 -4.4376,-1.25 -1.7187,-14.4687 1.2187,-4.2188 1.4376,-4.4375 -7.3126,-1.1875 -7.2187,3 -2.8125,2.9063 -4.4688,-10.0313 -4.5624,-5.6562 5.625,-4.4688 1.4374,-4.25 1.0938,-10.125 -0.062,-1.5312 5.5625,-7.3438 4.1875,-8.6875 5.625,-5.8125 1.4687,-2.9062 10,-5.9063 2.7188,-5.7812 -4.4375,-1.4375 -5.8437,-2.75 -7.375,-4.25 -5.875,-4.0938 -10.2813,-4.2187 -8.625,0.1562 -7.25,1.6875 -7.125,5.8438 -7.0937,0.125 -19.0938,-11.2813 -2.9688,-2.8125 -7.125,5.875 -1.7187,-7.0312 -13.0937,-1.2813 -11.6563,-5.5312 z m 84.375,184.1875 4.4687,1.4375 4.2813,2.7812 0.031,1.3438 -8.5,4.5312 0.1874,7.25 -1.4374,4.25 -1.3126,1.5313 -4.375,1.4375 -1.375,-1.3125 -0.062,-2.875 -3.0938,-8.5313 -0.031,-1.5312 -0.094,-2.8438 9.9375,-1.7187 1.5,-1.375 1.2813,-2.875 -1.4063,-1.5 z m -247.0313,17.5625 -23.1874,1.9375 1.5624,1.3125 10.3126,5.5312 21.7187,1.125 -1.5625,-1.5 2.7188,-5.7812 -11.5626,-2.625 z m 32.875,211.0625 4.4688,2.7812 -5.4688,10.2188 -1.6562,-4.3438 -5.8125,-2.75 2.875,-0.0625 -3.0313,-5.6563 2.875,-0.0624 3,4.3437 2.75,-4.4687 z m -50.5312,562.5624 0.0625,1.5 -4.3437,2.9688 -4.4688,-1.4688 3,-2.9062 5.75,-0.0938 z"
         style="fill:#ffccaa;fill-opacity:1;fill-rule:nonzero;stroke:#000000;stroke-width:2;stroke-miterlimit:4;stroke-dasharray:none;stroke-opacity:1"
         inkscape:connector-curvature="0" />
    </g>
  </g>
</svg>
